name processed_emg_signals						
nRows=90						
nColumns=7						
 						
endheader						
time	LGLTMED	LRF	LADDLONG	LST	LTA	LGM
0.9	0.127747459	0.021336019	0.022833782	0.267800818	0.303186699	0.049932893
0.901	0.12847348	0.020961397	0.022644413	0.269231531	0.307933092	0.049611098
0.902	0.129246974	0.020606593	0.022461486	0.270628625	0.312671829	0.049286548
0.903	0.130067083	0.02027144	0.022284949	0.271991292	0.317396675	0.048959644
0.904	0.130932891	0.019955757	0.022114743	0.273318723	0.322101451	0.048630805
0.905	0.131843425	0.019659343	0.021950809	0.274610114	0.326780045	0.048300475
0.906	0.132797653	0.019381985	0.021793087	0.275864662	0.331426413	0.047969116
0.907	0.13379449	0.01912345	0.021641512	0.27708157	0.336034591	0.04763721
0.908	0.134832792	0.018883492	0.021496018	0.278260046	0.340598699	0.047305261
0.909	0.135911363	0.018661851	0.021356538	0.279399308	0.345112944	0.046973793
0.91	0.137028953	0.018458252	0.021223003	0.280498579	0.349571633	0.046643349
0.911	0.13818426	0.018272409	0.021095342	0.281557096	0.353969174	0.046314492
0.912	0.139375929	0.018104022	0.020973484	0.282574106	0.358300082	0.045987804
0.913	0.140602559	0.017952779	0.020857356	0.283548869	0.362558986	0.045663889
0.914	0.141862695	0.017818358	0.020746885	0.284480659	0.366740632	0.045343367
0.915	0.14315484	0.017700425	0.020641995	0.285368764	0.370839892	0.045026876
0.916	0.144477446	0.017598638	0.020542612	0.286212492	0.374851764	0.044715075
0.917	0.145828925	0.017512645	0.020448661	0.287011165	0.378771378	0.044408639
0.918	0.147207642	0.017442086	0.020360065	0.287764126	0.382594003	0.04410826
0.919	0.148611922	0.017386592	0.020276749	0.288470738	0.386315048	0.043814648
0.92	0.150040051	0.017345789	0.020198636	0.289130382	0.389930066	0.04352853
0.921	0.151490274	0.017319294	0.020125651	0.289742464	0.393434761	0.043250646
0.922	0.152960803	0.017306719	0.020057717	0.290306411	0.396824986	0.042981754
0.923	0.154449811	0.017307673	0.019994758	0.290821675	0.400096753	0.042722627
0.924	0.155955441	0.017321757	0.019936699	0.291287731	0.403246228	0.042474051
0.925	0.157475804	0.01734857	0.019883466	0.29170408	0.406269743	0.042236827
0.926	0.159008981	0.017387708	0.019834983	0.292070248	0.409163791	0.042011768
0.927	0.160553026	0.017438763	0.019791176	0.29238579	0.411925032	0.0417997
0.928	0.162105967	0.017501326	0.019751973	0.292650286	0.414550294	0.041601462
0.929	0.16366581	0.017574985	0.0197173	0.292863345	0.417036579	0.041417902
0.93	0.16523054	0.017659328	0.019687085	0.293024605	0.419381057	0.04124988
0.931	0.166798121	0.017753944	0.019661257	0.29313373	0.421581074	0.041098264
0.932	0.168366502	0.017858419	0.019639745	0.293190417	0.423634155	0.040963934
0.933	0.169933617	0.017972341	0.019622481	0.293194392	0.425537996	0.040847775
0.934	0.171497388	0.018095301	0.019609395	0.29314541	0.427290477	0.040750682
0.935	0.173055726	0.018226889	0.019600419	0.293043256	0.428889652	0.040673554
0.936	0.174606535	0.018366698	0.019595487	0.292887749	0.430333759	0.040617298
0.937	0.176147716	0.018514324	0.019594532	0.292678735	0.431621213	0.040582825
0.938	0.177677164	0.018669365	0.01959749	0.292416094	0.432750614	0.040571049
0.939	0.179192776	0.018831424	0.019604297	0.292099736	0.433720737	0.040582888
0.94	0.180692451	0.019000107	0.01961489	0.291729602	0.434530544	0.040619261
0.941	0.182174093	0.019175023	0.019629206	0.291305665	0.435179174	0.040681091
0.942	0.183635612	0.019355788	0.019647185	0.290827931	0.435665948	0.040769297
0.943	0.18507493	0.019542022	0.019668766	0.290296433	0.435990366	0.0408848
0.944	0.186489982	0.019733349	0.019693892	0.289711241	0.43615211	0.041028518
0.945	0.187878717	0.019929399	0.019722502	0.28907245	0.436151037	0.041201366
0.946	0.189239103	0.02012981	0.019754542	0.288380192	0.435987185	0.041404254
0.947	0.19056913	0.020334224	0.019789954	0.287634624	0.435660765	0.041638089
0.948	0.19186681	0.02054229	0.019828683	0.286835939	0.435172166	0.041903768
0.949	0.193130181	0.020753664	0.019870676	0.285984354	0.434521949	0.042202184
0.95	0.194357312	0.020968008	0.01991588	0.285080122	0.433710847	0.042534219
0.951	0.195546304	0.021184992	0.019964242	0.284123522	0.432739761	0.042900746
0.952	0.19669529	0.021404292	0.020015711	0.283114861	0.431609765	0.043302625
0.953	0.197802443	0.021625594	0.020070237	0.282054478	0.430322093	0.043740706
0.954	0.198865975	0.021848587	0.020127771	0.280942737	0.428878145	0.044215823
0.955	0.199884143	0.022072973	0.020188265	0.279780032	0.427279482	0.044728796
0.956	0.200855246	0.022298458	0.02025167	0.278566783	0.425527821	0.045280429
0.957	0.201777635	0.022524757	0.020317941	0.277303435	0.423625037	0.045871507
0.958	0.20264971	0.022751594	0.020387031	0.275990462	0.421573155	0.046502798
0.959	0.203469925	0.022978698	0.020458895	0.274628361	0.41937435	0.047175046
0.96	0.204236791	0.023205809	0.02053349	0.273217654	0.417030941	0.047888978
0.961	0.204948875	0.023432674	0.020610773	0.271758887	0.414545393	0.048645294
0.962	0.205604809	0.023659048	0.020690699	0.270252631	0.411920308	0.049444672
0.963	0.206203284	0.023884694	0.020773228	0.268699477	0.409158422	0.050287765
0.964	0.20674306	0.024109383	0.020858317	0.26710004	0.406262605	0.051175196
0.965	0.207222963	0.024332895	0.020945927	0.265454955	0.403235853	0.052107563
0.966	0.207641889	0.024555017	0.021036016	0.263764878	0.400081287	0.053085433
0.967	0.207998807	0.024775544	0.021128546	0.262030485	0.396802147	0.054109344
0.968	0.208292757	0.02499428	0.021223476	0.260252471	0.393401789	0.055179798
0.969	0.208522855	0.025211035	0.021320768	0.258431551	0.389883679	0.05629727
0.97	0.208688295	0.025425629	0.021420383	0.256568457	0.386251391	0.057462195
0.971	0.208788347	0.025637887	0.021522283	0.254663937	0.3825086	0.058674976
0.972	0.208822362	0.025847646	0.021626429	0.252718759	0.378659081	0.059935979
0.973	0.208789769	0.026054745	0.021732784	0.250733706	0.374706697	0.061245532
0.974	0.208690082	0.026259035	0.021841309	0.248709576	0.370655405	0.062603925
0.975	0.208522893	0.026460373	0.021951966	0.246647186	0.36650924	0.064011409
0.976	0.208287878	0.026658623	0.022064718	0.244547364	0.362272318	0.065468192
0.977	0.207984797	0.026853656	0.022179525	0.242410956	0.357948826	0.066974444
0.978	0.207613492	0.02704535	0.022296348	0.240238823	0.353543021	0.068530292
0.979	0.20717389	0.027233592	0.02241515	0.238031839	0.34905922	0.07013582
0.98	0.206665999	0.027418273	0.02253589	0.235790892	0.344501798	0.071791068
0.981	0.206089913	0.027599294	0.022658528	0.233516887	0.339875182	0.073496032
0.982	0.205445807	0.027776558	0.022783024	0.23121074	0.335183845	0.075250665
0.983	0.204733937	0.02794998	0.022909337	0.228873383	0.3304323	0.077054872
0.984	0.203954645	0.028119478	0.023037424	0.226505763	0.325625096	0.078908514
0.985	0.203108349	0.028284977	0.023167243	0.224108838	0.320766809	0.080811406
0.986	0.202195549	0.028446409	0.023298749	0.221683583	0.315862042	0.082763317
0.987	0.201216826	0.028603711	0.023431899	0.219230985	0.310915414	0.084763967
0.988	0.200172834	0.028756826	0.023566646	0.216752046	0.305931555	0.086813033
0.989	0.199064307	0.028905705	0.023702943	0.214247784	0.300915103	0.088910141
